<svg width="32" height="16" fill="none" xmlns="http://www.w3.org/2000/svg"><path d="M8.623 5.08h1.312l1.008 2.768c.064.187.126.376.184.568l.176.576h.04c.064-.192.123-.384.176-.576.059-.192.12-.381.184-.568l.984-2.768H14V11h-1.08V8.528c0-.139.005-.29.016-.456l.032-.512a88.487 88.487 0 01.096-.976h-.032l-.48 1.392-.912 2.488h-.68l-.92-2.488-.472-1.392h-.032a88.487 88.487 0 01.096.976c.016.17.03.341.04.512.01.165.016.317.016.456V11H8.623V5.08zm6.588 0h1.944c.326 0 .63.032.912.096.283.059.528.16.736.304.208.144.37.336.488.576.123.235.184.528.184.88 0 .336-.061.63-.184.88-.117.245-.28.448-.488.608-.202.16-.442.28-.72.36a3.436 3.436 0 01-.896.112h-.792V11h-1.184V5.08zm1.896 2.88c.806 0 1.208-.341 1.208-1.024 0-.347-.106-.587-.32-.72-.208-.133-.517-.2-.928-.2h-.672V7.96h.712zm5.024-3.04c.278.005.53.05.76.136.23.085.424.2.584.344a1.414 1.414 0 01.496 1.128c0 .341-.088.619-.264.832-.17.208-.381.373-.632.496.352.133.606.317.76.552.16.23.24.52.24.872a1.856 1.856 0 01-.184.808 1.818 1.818 0 01-.464.592 2.018 2.018 0 01-.672.352c-.256.08-.522.12-.8.12-.304 0-.573-.037-.808-.112a1.849 1.849 0 01-.6-.32 2.18 2.18 0 01-.432-.52 3.537 3.537 0 01-.296-.704l.976-.384c.022.08.059.176.112.288.054.112.11.213.168.304.064.085.136.165.216.24.086.07.179.128.28.176.107.048.23.072.368.072.176 0 .328-.024.456-.072a1.02 1.02 0 00.328-.2.802.802 0 00.2-.288.875.875 0 00.064-.328c0-.139-.016-.267-.048-.384a.53.53 0 00-.184-.296.951.951 0 00-.424-.192 3.093 3.093 0 00-.744-.072v-.8c.262-.005.478-.03.648-.072.17-.043.304-.101.4-.176a.644.644 0 00.2-.272c.038-.107.056-.224.056-.352.006-.277-.066-.483-.216-.616-.144-.139-.346-.208-.608-.208a.923.923 0 00-.592.184.99.99 0 00-.336.464 2.6 2.6 0 00-.088.376c-.17-.027-.344-.056-.52-.088a8.133 8.133 0 00-.52-.096c.118-.603.358-1.05.72-1.344.368-.293.835-.44 1.4-.44z" fill="#A451F7"/><rect x=".5" y=".5" width="31" height="15" rx="7.5" stroke="#A451F7"/></svg>